<?xml version="1.0" encoding="UTF-8"?>
<!DOCTYPE svg PUBLIC "-//W3C//DTD SVG 1.1//EN" "http://www.w3.org/Graphics/SVG/1.1/DTD/svg11.dtd">
<svg xmlns="http://www.w3.org/2000/svg" version="1.1" width="512px" height="512px" style="shape-rendering:geometricPrecision; text-rendering:geometricPrecision; image-rendering:optimizeQuality; fill-rule:evenodd; clip-rule:evenodd" xmlns:xlink="http://www.w3.org/1999/xlink">
<g><path style="opacity:0.972" fill="#e63845" d="M 187.5,41.5 C 232.835,41.3333 278.168,41.5 323.5,42C 336.389,45.5699 342.223,54.0699 341,67.5C 338.833,77 333,82.8333 323.5,85C 278.167,85.6667 232.833,85.6667 187.5,85C 172.802,80.4471 167.302,70.6138 171,55.5C 174.283,48.1235 179.783,43.4568 187.5,41.5 Z"/></g>
<g><path style="opacity:0.997" fill="#c9273a" d="M 405.5,170.5 C 305.5,170.5 205.5,170.5 105.5,170.5C 96.8269,170.666 88.1603,170.5 79.5,170C 65.8945,165.3 60.7278,155.8 64,141.5C 66.5,135 71,130.5 77.5,128C 196.167,127.333 314.833,127.333 433.5,128C 447.596,135.052 451.429,145.885 445,160.5C 441.635,165.186 437.135,168.353 431.5,170C 422.84,170.5 414.173,170.666 405.5,170.5 Z"/></g>
<g><path style="opacity:0.994" fill="#e63946" d="M 105.5,170.5 C 205.5,170.5 305.5,170.5 405.5,170.5C 405.667,243.834 405.5,317.167 405,390.5C 402.172,419.295 388.672,441.462 364.5,457C 352.721,463.815 340.055,467.815 326.5,469C 279.167,469.667 231.833,469.667 184.5,469C 155.705,466.172 133.538,452.672 118,428.5C 111.393,417.013 107.393,404.68 106,391.5C 105.5,317.834 105.333,244.167 105.5,170.5 Z"/></g>
<g><path style="opacity:1" fill="#ede9e8" d="M 208.5,212.5 C 221.08,212.041 229.58,217.707 234,229.5C 234.667,275.167 234.667,320.833 234,366.5C 228.868,380.484 219.035,385.65 204.5,382C 198.18,379.014 194.013,374.181 192,367.5C 191.333,321.167 191.333,274.833 192,228.5C 194.752,220.247 200.252,214.913 208.5,212.5 Z"/></g>
<g><path style="opacity:1" fill="#ede9e8" d="M 293.5,212.5 C 305.968,211.645 314.468,216.978 319,228.5C 319.667,274.833 319.667,321.167 319,367.5C 314.375,379.781 305.542,384.947 292.5,383C 284.234,380.401 279.068,374.901 277,366.5C 276.333,320.833 276.333,275.167 277,229.5C 280.019,221.316 285.519,215.649 293.5,212.5 Z"/></g>
</svg>
